<svg width="1128" height="1200" viewBox="0 0 1128 1200" fill="none" xmlns="http://www.w3.org/2000/svg">
<rect width="1128" height="1200" fill="black"/>
<path d="M108.93 663.95V639.25L218.18 639.44C223.753 639.44 227.997 638.173 230.91 635.64C233.95 632.98 235.47 628.737 235.47 622.91C235.47 617.083 233.95 612.903 230.91 610.37C227.997 607.71 223.753 606.38 218.18 606.38H150.16C136.1 606.38 125.143 603.023 117.29 596.31C109.563 589.47 105.7 579.463 105.7 566.29C105.7 553.117 109.563 543.173 117.29 536.46C125.143 529.62 136.1 526.2 150.16 526.2H256.94V550.9L153.39 550.71C147.943 550.71 143.7 551.977 140.66 554.51C137.62 556.917 136.1 560.843 136.1 566.29C136.1 571.737 137.62 575.727 140.66 578.26C143.7 580.667 147.943 581.87 153.39 581.87H221.41C235.47 581.87 246.363 585.353 254.09 592.32C261.943 599.16 265.87 609.357 265.87 622.91C265.87 636.337 261.943 646.533 254.09 653.5C246.363 660.467 235.47 663.95 221.41 663.95H108.93ZM304.121 705.75V683.9H361.501C369.101 683.9 372.901 680.037 372.901 672.31V663H314.191C303.044 663 294.874 660.213 289.681 654.64C284.614 649.067 282.081 641.847 282.081 632.98V565.15H309.631V629.75C309.631 637.35 313.431 641.15 321.031 641.15H371.951V565.15H400.451V675.73C400.451 684.723 397.854 691.943 392.661 697.39C387.468 702.963 379.361 705.75 368.341 705.75H304.121ZM421.427 663V565.15H506.737C517.883 565.15 525.99 567.937 531.057 573.51C536.25 578.957 538.847 586.177 538.847 595.17V663H511.297V598.4C511.297 590.8 507.497 587 499.897 587H448.977V663H421.427ZM609.651 663C598.631 663 590.525 660.277 585.331 654.83C580.138 649.257 577.541 641.973 577.541 632.98V587H549.231V565.15H577.541V535.13H605.091V565.15H645.751V587H605.091V629.56C605.091 637.287 608.891 641.15 616.491 641.15H651.071V663H609.651ZM665.235 663V527.15H692.785V565.15H750.545C761.692 565.15 769.798 567.937 774.865 573.51C780.058 578.957 782.655 586.177 782.655 595.17V663H755.105V598.4C755.105 590.8 751.305 587 743.705 587H692.785V663H665.235Z" fill="white"/>
<g clip-path="url(#clip0_2003_13)">
<path d="M836 473H1100V726H836V473Z" fill="black"/>
<path d="M1006.25 557.75H1020.25L1046.5 558L1050.5 558.25L1051.75 559L1052.75 560.5L1053.75 564.25L1054.25 568V574.5L1053.25 577.75L1051 580.75L1048 583.75L1045.5 585.25L1044 585.75L1025.5 586.25L1025 587.25L1024.75 588.25V592.5L1025.5 593L1045 593.5L1046.75 594.5L1048.75 596.5L1050.75 598.25L1053 600.75L1054 603L1054.5 605.75L1054.25 617.25L1053.75 621.25L1052.75 622.75L1051 623.75L1006.25 624L1006 614.5V598.25L1006.25 557.75Z" fill="black"/>
<path d="M1001 549.75H1053L1054.75 550.5L1056 551.75L1058 554.25L1060 557.75L1061 559.75L1061.25 562.75V575.25L1060.5 579.25L1059.25 582.25L1056.25 585.5L1052.5 589.5L1052.75 590.25L1055.5 592.5L1058.25 595.25L1060 598L1061.25 600.75L1061.5 602.5V612.25L1061.25 619.75L1060.75 623.75L1059.5 626.25L1057.75 628.5L1055.25 630.5L1053.5 631L1050.75 631.25H1009.25L1001.75 631L1000.25 630.5L999.5 629L999 623.75L998.75 618.25L998.5 594.5V568L998.75 556L999.25 552.75L1000.5 550L1001 549.75ZM1006.25 557.75L1006 598.25V614.5L1006.25 624L1051 623.75L1053 622.5L1053.75 621.25L1054.25 617.25L1054.5 605.75L1053.75 602.25L1052.5 600.25L1050.25 597.75L1046.75 594.5L1045 593.5L1025.5 593L1024.75 592.5V588.25L1025.25 587L1025.5 586.25L1044 585.75L1046.5 584.75L1048.75 583L1051.5 580.25L1053.5 577.25L1054.25 574.5V568L1053.5 563L1052.5 560L1051.25 558.5L1050.5 558.25L1046.5 558L1020.25 557.75H1006.25Z" fill="#FEFEFE"/>
<path d="M925.25 549.5H932.25L932.5 549.75V603.5L933 605.75L934 607.25L936.75 610.25L940 613L943 615.25L946.25 618L948.75 620L952.75 622.75L954 623.25H956.75L959.75 622L963 619.75L966.5 616.75L968.5 615L971.75 611.75L973.75 610L981.5 602.25L982.25 600.25V583L982 562.25L981.75 555V549.75H989.25L989.5 550L989.75 603L988.75 604.5L985.75 607.5L984 609.5L981.25 612.5L979.5 614.5L976.75 617.5L967 627.25L964 629.5L962.25 630.25L961 630.5H951L948.25 630L946 629L943.75 627.5L940.25 624.25L937.5 622L935.75 620.25L933.75 618.5L926.75 611.5L925.75 609.25L925.5 608L925.25 585.75L925 549.75L925.25 549.5Z" fill="#FEFEFE"/>
<path d="M845 487.75H850.25L850.5 517.25V690.25L850 690.5H847.5L845.25 690.25L845 690L844.75 580.5V550L845 487.75Z" fill="#FEFEFE"/>
<path d="M913.25 549.25H915L915.25 549.5V629L913.5 630L912.5 630.25H908.75L908.5 629.75L908.25 623.75V592.75L869 592.5L868.5 592V587L869.25 585.25L869.75 585L879.25 584.75H899.5L908.25 585L907.75 562L907.5 554.25V550L907.75 549.75L913.25 549.25Z" fill="#FEFEFE"/>
</g>
<defs>
<clipPath id="clip0_2003_13">
<rect width="264" height="253" fill="white" transform="translate(836 473)"/>
</clipPath>
</defs>
</svg>
